<?xml version="1.0" standalone="no"?>
<!DOCTYPE svg PUBLIC "-//W3C//DTD SVG 20010904//EN"
 "http://www.w3.org/TR/2001/REC-SVG-20010904/DTD/svg10.dtd">
<svg version="1.0" xmlns="http://www.w3.org/2000/svg"
 width="242.000000pt" height="242.000000pt" viewBox="0 0 242.000000 242.000000"
 preserveAspectRatio="xMidYMid meet">

<g transform="translate(0.000000,242.000000) scale(0.100000,-0.100000)"
fill="#000000" stroke="none">
<path d="M407 1613 c-62 -132 -80 -218 -80 -378 0 -166 18 -249 87 -390 271
-555 982 -676 1411 -241 121 122 204 279 239 448 18 89 20 266 3 348 -11 49
-15 55 -39 58 -23 3 -28 -1 -28 -17 0 -18 -6 -21 -49 -21 l-49 0 10 -42 c19
-77 13 -235 -11 -323 -72 -261 -252 -446 -511 -526 -107 -33 -274 -33 -380 0
-296 92 -489 319 -530 624 -18 131 8 285 71 408 29 59 30 61 10 66 -12 3 -21
9 -21 13 0 4 -18 12 -40 19 -22 6 -40 16 -40 21 0 28 -21 2 -53 -67z"/>
<path d="M770 1497 c0 -48 -56 -146 -83 -147 -24 0 -70 -24 -88 -46 -8 -9 -36
-28 -64 -40 l-50 -23 42 0 c38 -1 50 5 98 49 30 28 60 50 65 50 6 0 10 -12 10
-27 0 -16 4 -34 9 -42 6 -10 2 -24 -12 -43 -16 -22 -18 -31 -9 -40 9 -9 12 -9
12 3 0 8 9 20 20 27 12 7 20 8 20 2 0 -5 7 -10 15 -10 17 0 20 16 5 25 -6 4
-3 16 7 31 14 22 14 27 2 35 -8 5 -24 9 -36 9 -31 0 -29 9 13 59 40 46 56 113
35 147 -9 16 -10 13 -11 -19z m-17 -204 c-7 -2 -21 -2 -30 0 -10 3 -4 5 12 5
17 0 24 -2 18 -5z m-6 -19 c-3 -3 -12 -4 -19 -1 -8 3 -5 6 6 6 11 1 17 -2 13
-5z"/>
<path d="M660 1401 c0 -24 15 -35 36 -27 12 4 13 10 4 26 -14 26 -40 26 -40 1z"/>
<path d="M801 1301 c-40 -40 -18 -121 32 -121 9 0 17 -4 17 -8 0 -13 -23 -32
-37 -32 -19 0 -93 -75 -93 -93 0 -10 11 -5 33 15 l32 31 3 -27 c4 -30 32 -36
32 -6 0 13 7 20 20 20 13 0 20 -7 20 -20 0 -11 7 -20 15 -20 11 0 15 12 15 49
0 27 -5 51 -11 53 -17 6 2 38 22 38 15 0 19 7 19 35 0 33 -2 35 -35 35 -24 0
-35 -5 -35 -15 0 -8 7 -15 15 -15 8 0 15 -4 15 -10 0 -12 -2 -12 -34 0 -18 6
-26 17 -26 34 0 34 24 50 66 43 29 -5 35 -3 32 11 -5 27 -91 29 -117 3z m59
-176 c0 -8 -7 -15 -16 -15 -14 0 -14 3 -4 15 7 8 14 15 16 15 2 0 4 -7 4 -15z"/>
<path d="M950 1250 l0 -70 55 0 c42 0 55 3 55 15 0 10 -11 15 -35 15 -19 0
-35 5 -35 10 0 6 14 10 30 10 23 0 30 4 30 20 0 16 -7 20 -30 20 -16 0 -30 5
-30 10 0 6 16 10 35 10 24 0 35 5 35 15 0 12 -13 15 -55 15 l-55 0 0 -70z"/>
<path d="M1080 1250 c0 -63 2 -70 20 -70 17 0 20 7 20 42 l0 41 30 -41 c46
-63 60 -56 60 28 0 56 -3 70 -15 70 -11 0 -15 -11 -15 -42 l0 -43 -26 43 c-19
31 -31 42 -50 42 -23 0 -24 -2 -24 -70z"/>
<path d="M1247 1302 c-24 -26 -22 -85 3 -107 29 -26 85 -25 112 2 26 26 27 77
2 104 -23 26 -95 26 -117 1z m91 -54 c3 -37 3 -38 -32 -38 -31 0 -36 3 -36 24
0 43 11 57 39 54 22 -3 26 -8 29 -40z"/>
<path d="M1400 1250 c0 -63 2 -70 20 -70 17 0 20 7 20 43 l1 42 15 -27 c8 -16
21 -28 29 -28 8 0 21 12 29 28 l15 27 1 -42 c0 -31 4 -43 15 -43 12 0 15 14
15 70 0 66 -1 70 -23 70 -17 0 -26 -9 -36 -37 l-14 -37 -19 37 c-14 28 -25 37
-43 37 -24 0 -25 -2 -25 -70z"/>
<path d="M1614 1273 c-9 -27 -21 -52 -26 -57 -14 -17 -9 -36 11 -36 10 0 21 7
25 15 3 8 17 15 31 15 14 0 28 -7 31 -15 4 -8 15 -15 26 -15 11 0 18 3 16 8
-2 4 -14 35 -27 70 -19 51 -28 62 -47 62 -18 0 -26 -10 -40 -47z m55 -35 c1
-5 -6 -8 -15 -8 -11 0 -14 5 -10 16 3 9 6 21 7 27 0 12 17 -20 18 -35z"/>
<path d="M1757 1302 c-22 -25 -22 -84 1 -104 26 -23 56 -30 86 -19 44 17 32
37 -19 33 -44 -4 -45 -3 -45 25 0 16 5 34 12 41 16 16 51 15 67 0 10 -11 12
-8 9 12 -3 22 -8 25 -49 28 -34 2 -49 -2 -62 -16z"/>
<path d="M750 1199 c-20 -6 -21 -7 -5 -8 14 -1 -3 -22 -68 -84 -48 -46 -87
-91 -87 -99 0 -9 -3 -25 -6 -35 -4 -10 8 -1 25 19 17 20 54 53 81 73 60 44 92
87 88 118 -2 19 -7 22 -28 16z"/>
<path d="M1385 1160 c-3 -5 -1 -10 4 -10 6 0 11 5 11 10 0 6 -2 10 -4 10 -3 0
-8 -4 -11 -10z"/>
<path d="M1826 1162 c-2 -4 4 -8 14 -8 10 0 16 4 14 8 -3 4 -9 8 -14 8 -5 0
-11 -4 -14 -8z"/>
<path d="M1640 1150 c0 -5 7 -7 15 -4 8 4 15 8 15 10 0 2 -7 4 -15 4 -8 0 -15
-4 -15 -10z"/>
<path d="M1780 1156 c0 -2 7 -7 16 -10 8 -3 12 -2 9 4 -6 10 -25 14 -25 6z"/>
<path d="M910 1095 c0 -38 4 -47 24 -56 40 -19 66 3 66 56 0 33 -4 45 -15 45
-11 0 -15 -11 -15 -40 0 -29 -4 -40 -15 -40 -11 0 -15 11 -15 40 0 29 -4 40
-15 40 -11 0 -15 -12 -15 -45z"/>
<path d="M1020 1089 l0 -50 43 3 c35 2 43 7 45 26 2 12 -1 22 -6 22 -5 0 -7
11 -4 25 4 23 2 25 -37 25 l-41 0 0 -51z m55 21 c-3 -5 -10 -10 -16 -10 -5 0
-9 5 -9 10 0 6 7 10 16 10 8 0 12 -4 9 -10z m5 -40 c0 -5 -7 -10 -15 -10 -8 0
-15 5 -15 10 0 6 7 10 15 10 8 0 15 -4 15 -10z"/>
</g>
</svg>
